<svg width="23.066483" height="22.398926" viewBox="0 0 23.0665 22.3989" fill="none" xmlns="http://www.w3.org/2000/svg" xmlns:xlink="http://www.w3.org/1999/xlink">
	<desc>
			Created with Pixso.
	</desc>
	<defs/>
	<path id="Vector" d="M11.53 0C5.14 0 0 5.11 0 11.47C0 16.54 3.31 20.85 7.88 22.38C8.45 22.47 8.64 22.14 8.64 21.8C8.64 21.52 8.64 20.8 8.64 19.84C5.43 20.56 4.75 18.31 4.75 18.31C4.22 16.97 3.45 16.64 3.45 16.64C2.4 15.92 3.55 15.92 3.55 15.92C4.7 16.02 5.33 17.12 5.33 17.12C6.34 18.89 8.02 18.36 8.69 18.07C8.79 17.31 9.08 16.83 9.41 16.54C6.87 16.26 4.18 15.25 4.18 10.85C4.18 9.61 4.61 8.56 5.38 7.79C5.28 7.5 4.85 6.36 5.47 4.73C5.47 4.73 6.43 4.44 8.64 5.93C9.56 5.69 10.57 5.54 11.53 5.54C12.49 5.54 13.5 5.69 14.41 5.93C16.62 4.44 17.58 4.73 17.58 4.73C18.21 6.31 17.82 7.46 17.68 7.79C18.4 8.6 18.88 9.61 18.88 10.85C18.88 15.25 16.19 16.21 13.59 16.49C14.03 16.83 14.36 17.55 14.36 18.6C14.36 20.13 14.36 21.37 14.36 21.76C14.36 22.04 14.56 22.43 15.18 22.33C19.75 20.85 23.06 16.54 23.06 11.47C23.06 5.11 17.92 0 11.53 0Z" fill="#131318" fill-opacity="1.000000" fill-rule="evenodd"/>
</svg>
