<svg width="18.000000" height="12.000000" viewBox="0 0 18 12" fill="none" xmlns="http://www.w3.org/2000/svg" xmlns:xlink="http://www.w3.org/1999/xlink">
	<desc>
			Created with Pixso.
	</desc>
	<defs/>
	<path id="Vector" d="M0.95 5L17.04 5C17.57 5 18 5.42 18 5.94L18 6.05C18 6.57 17.57 7 17.04 7L0.95 7C0.42 7 0 6.57 0 6.05L0 5.94C0 5.42 0.42 5 0.95 5Z" fill="#1B1B1B" fill-opacity="1.000000" fill-rule="evenodd"/>
	<path id="Vector" d="M0.95 10L17.04 10C17.57 10 18 10.42 18 10.95L18 11.05C18 11.57 17.57 12 17.04 12L0.95 12C0.42 12 0 11.57 0 11.05L0 10.95C0 10.42 0.42 10 0.95 10Z" fill="#1B1B1B" fill-opacity="1.000000" fill-rule="evenodd"/>
	<path id="Vector" d="M0.95 0L17.04 0C17.57 0 18 0.42 18 0.94L18 1.05C18 1.57 17.57 2 17.04 2L0.95 2C0.42 2 0 1.57 0 1.05L0 0.94C0 0.42 0.42 0 0.95 0Z" fill="#1B1B1B" fill-opacity="1.000000" fill-rule="evenodd"/>
</svg>
