<svg width="24.114029" height="24.000000" viewBox="0 0 24.114 24" fill="none" xmlns="http://www.w3.org/2000/svg" xmlns:xlink="http://www.w3.org/1999/xlink">
	<desc>
			Created with Pixso.
	</desc>
	<defs/>
	<path id="Vector" d="M12.05 2.16C15.27 2.16 15.65 2.17 16.92 2.23C17.69 2.24 18.45 2.38 19.16 2.64C19.68 2.84 20.16 3.15 20.55 3.54C20.94 3.93 21.25 4.4 21.45 4.92C21.72 5.63 21.86 6.39 21.87 7.15C21.92 8.41 21.94 8.79 21.94 12C21.94 15.2 21.93 15.58 21.87 16.84C21.86 17.6 21.72 18.36 21.45 19.07C21.25 19.59 20.94 20.06 20.55 20.45C20.16 20.84 19.68 21.15 19.16 21.35C18.45 21.61 17.69 21.75 16.92 21.76C15.65 21.82 15.27 21.83 12.05 21.83C8.83 21.83 8.45 21.82 7.18 21.76C6.42 21.75 5.66 21.61 4.94 21.35C4.42 21.15 3.95 20.84 3.55 20.45C3.16 20.06 2.85 19.59 2.65 19.07C2.39 18.36 2.25 17.6 2.24 16.84C2.18 15.58 2.17 15.2 2.17 12C2.17 8.79 2.18 8.41 2.24 7.15C2.25 6.39 2.39 5.63 2.65 4.92C2.85 4.4 3.16 3.93 3.55 3.54C3.95 3.15 4.42 2.84 4.94 2.64C5.66 2.38 6.42 2.24 7.18 2.23C8.45 2.17 8.83 2.16 12.05 2.16ZM12.05 0C8.78 0 8.37 0.01 7.08 0.07C6.08 0.09 5.09 0.28 4.15 0.62C3.35 0.93 2.62 1.4 2.02 2.01C1.4 2.61 0.93 3.33 0.63 4.13C0.28 5.07 0.09 6.05 0.07 7.05C0.01 8.33 0 8.74 0 11.99C0 15.25 0.01 15.66 0.07 16.94C0.09 17.94 0.28 18.92 0.63 19.86C0.93 20.66 1.41 21.38 2.02 21.98C2.62 22.59 3.35 23.06 4.15 23.37C5.09 23.71 6.08 23.9 7.08 23.92C8.37 23.98 8.78 24 12.05 24C15.33 24 15.74 23.98 17.02 23.92C18.02 23.9 19.01 23.71 19.95 23.37C20.75 23.06 21.48 22.58 22.09 21.98C22.69 21.38 23.17 20.65 23.48 19.85C23.83 18.92 24.02 17.94 24.04 16.94C24.1 15.66 24.11 15.25 24.11 11.99C24.11 8.74 24.1 8.33 24.04 7.05C24.02 6.05 23.83 5.07 23.48 4.13C23.17 3.33 22.7 2.61 22.09 2.01C21.48 1.4 20.75 0.92 19.95 0.62C19.01 0.27 18.02 0.09 17.02 0.07C15.74 0.01 15.32 0 12.05 0Z" fill="#131318" fill-opacity="1.000000" fill-rule="nonzero"/>
	<path id="Vector" d="M12.05 5.83C10.83 5.83 9.63 6.19 8.61 6.87C7.59 7.55 6.8 8.51 6.33 9.64C5.86 10.76 5.74 12 5.98 13.2C6.22 14.39 6.81 15.49 7.67 16.35C8.54 17.21 9.64 17.8 10.84 18.04C12.04 18.28 13.29 18.15 14.42 17.69C15.55 17.22 16.52 16.43 17.2 15.42C17.88 14.4 18.24 13.21 18.24 12C18.24 10.36 17.59 8.79 16.43 7.64C15.27 6.48 13.69 5.83 12.05 5.83ZM12.05 15.99C11.26 15.99 10.48 15.76 9.82 15.32C9.16 14.88 8.64 14.26 8.34 13.53C8.03 12.79 7.95 11.99 8.11 11.21C8.26 10.44 8.65 9.73 9.21 9.17C9.77 8.61 10.49 8.23 11.27 8.07C12.05 7.92 12.85 8 13.59 8.3C14.32 8.6 14.95 9.11 15.39 9.77C15.83 10.43 16.07 11.2 16.07 12C16.07 13.06 15.65 14.07 14.89 14.82C14.14 15.57 13.12 15.99 12.05 15.99Z" fill="#131318" fill-opacity="1.000000" fill-rule="nonzero"/>
	<path id="Vector" d="M19.93 5.59C19.93 6.38 19.29 7.03 18.49 7.03C17.69 7.03 17.04 6.38 17.04 5.59C17.04 4.79 17.69 4.15 18.49 4.15C19.29 4.15 19.93 4.79 19.93 5.59Z" fill="#131318" fill-opacity="1.000000" fill-rule="evenodd"/>
</svg>
