<svg width="19.887856" height="15.999268" viewBox="0 0 19.8879 15.9993" fill="none" xmlns="http://www.w3.org/2000/svg" xmlns:xlink="http://www.w3.org/1999/xlink">
	<desc>
			Created with Pixso.
	</desc>
	<defs/>
	<path id="Vector" d="M19.88 1.85C19.14 2.18 18.35 2.39 17.52 2.51C18.35 2.02 19.01 1.23 19.3 0.28C18.52 0.74 17.65 1.07 16.69 1.27C15.95 0.49 14.87 0 13.71 0C11.47 0 9.65 1.81 9.65 4.04C9.65 4.37 9.69 4.65 9.77 4.94C6.42 4.78 3.39 3.17 1.36 0.7C1.03 1.31 0.82 1.97 0.82 2.72C0.82 4.12 1.53 5.36 2.65 6.1C1.98 6.06 1.36 5.89 0.78 5.6L0.78 5.64C0.78 7.62 2.19 9.27 4.06 9.64C3.72 9.73 3.35 9.77 2.98 9.77C2.73 9.77 2.44 9.73 2.19 9.69C2.73 11.29 4.22 12.49 6 12.49C4.59 13.56 2.85 14.22 0.95 14.22C0.62 14.22 0.29 14.22 0 14.18C1.82 15.33 3.93 15.99 6.25 15.99C13.75 15.99 17.85 9.81 17.85 4.45C17.85 4.28 17.85 4.08 17.85 3.91C18.64 3.38 19.34 2.68 19.88 1.85Z" fill="#131318" fill-opacity="1.000000" fill-rule="nonzero"/>
</svg>
